<svg version="1.1" id="Logo_3_1_" xmlns="http://www.w3.org/2000/svg" x="0" y="0" viewBox="120 15 405 98" xml:space="preserve"><style>.st0{fill:#499cdb}.st1{fill:#fff}</style><path class="st0" d="M231.5 92.1h-5.3V77.4l-6.6-25.2h5.3l4 17.3h.2l3.6-17.3h5.3l-6.5 25.2v14.7zM246.7 92.1c-4.3 0-6.5-2.3-6.5-6.8V59c0-4.6 2.1-6.8 6.4-6.8h5.1c4.3 0 6.4 2.3 6.4 6.8v26.3c0 4.5-2.2 6.8-6.5 6.8h-4.9zm1.3-4.9h2.7c1.4 0 2.1-.8 2.1-2.3V59.3c0-1.6-.8-2.3-2.4-2.3h-2.5c-1.6 0-2.3.8-2.3 2.3v25.6c0 1.6.8 2.3 2.4 2.3zM279.9 52.2v32.3c0 5-2.2 7.6-6.5 7.6h-4.5c-4.3 0-6.4-2.5-6.4-7.6V52.2h5.3v32.5c0 1.7.8 2.6 2.3 2.6h2.2c1.4 0 2.2-.9 2.2-2.6V52.2h5.4zM305.4 92.1V73.9h-6.6V92h-5.3V52.2h5.3v17h6.6v-17h5.3v39.9h-5.3zM320.6 92.1h-5.3V59c0-4.6 2.1-6.8 6.4-6.8h4c4.3 0 6.4 2.3 6.4 6.8v33.1h-5.3V77.5h-6.1v14.6zm6.1-19.5V59.3c0-1.6-.8-2.3-2.3-2.3H323c-1.6 0-2.3.8-2.3 2.3v13.3h6zM345 57v35.1h-5.3V57h-5.1v-4.8h15.6V57H345zM353.5 92.1V52.2h13.2V57h-7.9v12.1h7v4.8h-7v13.3h7.9V92h-13.2zM388 57v35.1h-5.3V57h-5.1v-4.8h15.6V57H388zM402.7 92.1c-4.3 0-6.5-2.3-6.5-6.8V59c0-4.6 2.1-6.8 6.4-6.8h5.1c4.3 0 6.4 2.3 6.4 6.8v26.3c0 4.5-2.2 6.8-6.5 6.8h-4.9zm1.3-4.9h2.7c1.4 0 2.1-.8 2.1-2.3V59.3c0-1.6-.8-2.3-2.4-2.3h-2.5c-1.6 0-2.3.8-2.3 2.3v25.6c0 1.6.8 2.3 2.4 2.3z"/><path class="st1" d="M439.4 59v-4c0-1.8-.9-2.7-2.6-2.7h-.9c-1.7 0-2.6.9-2.6 2.7v7.5c0 .8.2 1.4.5 1.7.3.3.9.7 1.6 1.1l5.7 3.1c1.3.7 2.2 1.3 2.7 1.7.5.4.9.9 1.2 1.4.3.6.4 1.6.4 3.2v9.6c0 5.1-2.4 7.6-7.3 7.6h-3.7c-4.8 0-7.2-2.8-7.2-8.3v-2.3h6V84c0 1.8.9 2.6 2.7 2.6h1.1c1.6 0 2.4-.9 2.4-2.6v-7.7c0-.8-.2-1.4-.5-1.7-.3-.3-.9-.7-1.6-1.1l-5.7-3.2c-1.3-.7-2.2-1.2-2.7-1.7-.6-.5-1-1.1-1.2-1.8-.3-.7-.4-1.7-.4-2.9v-9.2c0-5.2 2.4-7.7 7.2-7.7h3.8c4.8 0 7.2 2.6 7.2 7.7V59h-6.1zM450.9 92.1V46.9h15v5.5H457v13.7h7.9v5.5H457v15h8.9v5.5h-15zM469.9 92.1V46.9h15v5.5H476v13.7h7.9v5.5H476v15h8.9v5.5h-15z"/><path class="st0" d="M498.5 92.1V52.2h5.3v39.9h-5.3zM517 57v35.1h-5.3V57h-5.1v-4.8h15.6V57H517z"/><g><path class="st1" d="M205 78.1c-2.3-7.9-6.7-14.7-11.7-21.1 0-.1-.2-.1-.4-.1 1.8 5.5 3.6 10.9 5.4 16.3-.5-.2-.7-.5-1-.8-4.9-4.9-9.7-10.1-14.9-14.8-9.5-8.8-20-16.5-31.7-22.3-6.7-3.3-13.7-6-21.2-7.1-.4-.1-.8 0-1.3-.1v.2c.5.3 1 .5 1.3.8-7.3 20.4-4.1 38.7 10.7 54.6C151.1 95.4 166.6 99 178 97.8c0-.1-.1-.2-.1-.2-.5 0-1-.1-1.5-.1-8.5-.4-16.5-2.6-23.7-7.2-9-5.6-15.5-13.2-18.4-23.7-2.2-8.1-2.2-16.3-.8-24.5.4-2.3 1-4.7 1.5-7.3 7.6 4.5 14.9 8.7 22.2 13-1.9 5.8-3 11.3-2.7 17.1.2 5.2 1.5 10.1 5 14.2 3.4 3.9 7.5 6.3 12.9 5.6 3.4-.4 6.6-1.6 9.5-3.4 2.7-1.7 5.3-3.6 8.1-5.5l.2.2c1.5 1.7 2.9 3.4 4.3 5.1 1.5 1.9 2.1 2.6 1.8 3.7-1.9 4.6-6.6 11.1-13.9 15.9-.3.2-.5.3-.8.5-.2.1-.4.2-.6.4-.5.3-1 .6-1.4.8-.3.2-.6.3-.9.5-.2.1-.5.3-.7.4-.8.4-1.7.8-2.5 1.2-.1 0-.2.1-.3.1-.5.2-1 .4-1.4.6-.3.1-.7.3-1 .4-.4.2-.9.3-1.3.5-3 1.1-6.1 2-9.2 2.7-.2 0-.4.1-.4.1-.6.2-.6.4-.6.5 0 .1 0 .1.1.1 0 0 10.1-.5 23-8s14.3-15.1 14.3-15.1c.5.7 1 1.3 1.5 1.9 1.7-1.4 3.3-2.7 4.8-4.1.4-.4.7-1.1.6-1.6 0-1.3-.2-3-.6-4.5zm-26.3-11.9c-1.4 2.7-3.3 5-5.9 6.7-4.3 2.7-8.4 1.1-9.8-3.7-1-3.5-.7-7-.2-10.5.3-2 .7-3.9 1.1-6 2 1.1 2 1.1 1.6 3-.7 3.2-1.2 6.4-.9 9.6.2 2.3.8 4.6 3.3 5.5 2.4.9 4.3-.3 6.1-1.8 1.7-1.5 2.9-3.5 3.7-5.7 1.8.9 1.9 1.2 1 2.9zM145.4 101.2c-4.5-2.8-8.4-6.4-11.6-10.6-5.1-6.9-8.2-14.6-9.7-23-.1-.3-.3-.7-.5-1V68l.3 1.8c.4 4.4 1.3 8.8 2.9 13 3 7.8 7.9 14 15.5 17.8 1.3.6 2.6 1.1 4.1 1.7-.1-.3-.1-.4-.2-.5-.3-.2-.5-.4-.8-.6zM176.4 38.8c-11.3-9.9-23.9-16.4-39.4-16 13.9 3.5 27.4 7.8 39.4 16z"/></g></svg>