<?xml version="1.0" encoding="utf-8"?>
<!-- Generator: Adobe Illustrator 21.0.0, SVG Export Plug-In . SVG Version: 6.00 Build 0)  -->
<svg version="1.1" id="Logo_3_1_" xmlns="http://www.w3.org/2000/svg" xmlns:xlink="http://www.w3.org/1999/xlink" x="0px" y="0px"
	 viewBox="120 15 405 98" style="enable-background:new 0 0 636.5 132.5;" xml:space="preserve">
<style type="text/css">
	.st0{fill:#499CDB;}
	.st1{fill:#FFFFFF;}
</style>
<g>
	<g>
		<path class="st0" d="M231.5,92.1h-5.3V77.4l-6.6-25.2h5.3l4,17.3h0.2l3.6-17.3h5.3l-6.5,25.2V92.1z"/>
		<path class="st0" d="M246.7,92.1c-4.3,0-6.5-2.3-6.5-6.8V59c0-4.6,2.1-6.8,6.4-6.8h5.1c4.3,0,6.4,2.3,6.4,6.8v26.3
			c0,4.5-2.2,6.8-6.5,6.8H246.7z M248,87.2h2.7c1.4,0,2.1-0.8,2.1-2.3V59.3c0-1.6-0.8-2.3-2.4-2.3h-2.5c-1.6,0-2.3,0.8-2.3,2.3v25.6
			C245.6,86.5,246.4,87.2,248,87.2z"/>
		<path class="st0" d="M279.9,52.2v32.3c0,5-2.2,7.6-6.5,7.6h-4.5c-4.3,0-6.4-2.5-6.4-7.6V52.2h5.3v32.5c0,1.7,0.8,2.6,2.3,2.6h2.2
			c1.4,0,2.2-0.9,2.2-2.6V52.2H279.9z"/>
		<path class="st0" d="M305.4,92.1V73.9h-6.6v18.1h-5.3V52.2h5.3v17h6.6v-17h5.3v39.9H305.4z"/>
		<path class="st0" d="M320.6,92.1h-5.3V59c0-4.6,2.1-6.8,6.4-6.8h4c4.3,0,6.4,2.3,6.4,6.8v33.1h-5.3V77.5h-6.1V92.1z M326.7,72.6
			V59.3c0-1.6-0.8-2.3-2.3-2.3h-1.4c-1.6,0-2.3,0.8-2.3,2.3v13.3H326.7z"/>
		<path class="st0" d="M345,57v35.1h-5.3V57h-5.1v-4.8h15.6V57H345z"/>
		<path class="st0" d="M353.5,92.1V52.2h13.2V57h-7.9v12.1h7v4.8h-7v13.3h7.9v4.8H353.5z"/>
		<path class="st0" d="M388,57v35.1h-5.3V57h-5.1v-4.8h15.6V57H388z"/>
		<path class="st0" d="M402.7,92.1c-4.3,0-6.5-2.3-6.5-6.8V59c0-4.6,2.1-6.8,6.4-6.8h5.1c4.3,0,6.4,2.3,6.4,6.8v26.3
			c0,4.5-2.2,6.8-6.5,6.8H402.7z M404,87.2h2.7c1.4,0,2.1-0.8,2.1-2.3V59.3c0-1.6-0.8-2.3-2.4-2.3h-2.5c-1.6,0-2.3,0.8-2.3,2.3v25.6
			C401.6,86.5,402.4,87.2,404,87.2z"/>
		<path class="st1" d="M439.4,59v-4c0-1.8-0.9-2.7-2.6-2.7h-0.9c-1.7,0-2.6,0.9-2.6,2.7v7.5c0,0.8,0.2,1.4,0.5,1.7
			c0.3,0.3,0.9,0.7,1.6,1.1l5.7,3.1c1.3,0.7,2.2,1.3,2.7,1.7c0.5,0.4,0.9,0.9,1.2,1.4c0.3,0.6,0.4,1.6,0.4,3.2v9.6
			c0,5.1-2.4,7.6-7.3,7.6h-3.7c-4.8,0-7.2-2.8-7.2-8.3v-2.3h6V84c0,1.8,0.9,2.6,2.7,2.6h1.1c1.6,0,2.4-0.9,2.4-2.6v-7.7
			c0-0.8-0.2-1.4-0.5-1.7c-0.3-0.3-0.9-0.7-1.6-1.1l-5.7-3.2c-1.3-0.7-2.2-1.2-2.7-1.7c-0.6-0.5-1-1.1-1.2-1.8
			c-0.3-0.7-0.4-1.7-0.4-2.9v-9.2c0-5.2,2.4-7.7,7.2-7.7h3.8c4.8,0,7.2,2.6,7.2,7.7V59H439.4z"/>
		<path class="st1" d="M450.9,92.1V46.9h15v5.5h-8.9v13.7h7.9v5.5h-7.9v15h8.9v5.5H450.9z"/>
		<path class="st1" d="M469.9,92.1V46.9h15v5.5h-8.9v13.7h7.9v5.5h-7.9v15h8.9v5.5H469.9z"/>
		<path class="st0" d="M498.5,92.1V52.2h5.3v39.9H498.5z"/>
		<path class="st0" d="M517,57v35.1h-5.3V57h-5.1v-4.8h15.6V57H517z"/>
	</g>
	<g>
		<path class="st1" d="M205,78.1c-2.3-7.9-6.7-14.7-11.7-21.1c0-0.1-0.2-0.1-0.4-0.1c1.8,5.5,3.6,10.9,5.4,16.3
			c-0.5-0.2-0.7-0.5-1-0.8c-4.9-4.9-9.7-10.1-14.9-14.8c-9.5-8.8-20-16.5-31.7-22.3c-6.7-3.3-13.7-6-21.2-7.1
			c-0.4-0.1-0.8,0-1.3-0.1c0,0.1,0,0.1,0,0.2c0.5,0.3,1,0.5,1.3,0.8c-7.3,20.4-4.1,38.7,10.7,54.6c10.9,11.7,26.4,15.3,37.8,14.1
			c0-0.1-0.1-0.2-0.1-0.2c-0.5,0-1-0.1-1.5-0.1c-8.5-0.4-16.5-2.6-23.7-7.2c-9-5.6-15.5-13.2-18.4-23.7c-2.2-8.1-2.2-16.3-0.8-24.5
			c0.4-2.3,1-4.7,1.5-7.3c7.6,4.5,14.9,8.7,22.2,13c-1.9,5.8-3,11.3-2.7,17.1c0.2,5.2,1.5,10.1,5,14.2c3.4,3.9,7.5,6.3,12.9,5.6
			c3.4-0.4,6.6-1.6,9.5-3.4c2.7-1.7,5.3-3.6,8.1-5.5c0,0,0.1,0.1,0.2,0.2c1.5,1.7,2.9,3.4,4.3,5.1c1.5,1.9,2.1,2.6,1.8,3.7
			c-1.9,4.6-6.6,11.1-13.9,15.9c-0.3,0.2-0.5,0.3-0.8,0.5c-0.2,0.1-0.4,0.2-0.6,0.4c-0.5,0.3-1,0.6-1.4,0.8
			c-0.3,0.2-0.6,0.3-0.9,0.5c-0.2,0.1-0.5,0.3-0.7,0.4c-0.8,0.4-1.7,0.8-2.5,1.2c-0.1,0-0.2,0.1-0.3,0.1c-0.5,0.2-1,0.4-1.4,0.6
			c-0.3,0.1-0.7,0.3-1,0.4c-0.4,0.2-0.9,0.3-1.3,0.5c-3,1.1-6.1,2-9.2,2.7c-0.2,0-0.4,0.1-0.4,0.1c-0.6,0.2-0.6,0.4-0.6,0.5
			c0,0.1,0,0.1,0.1,0.1c0,0,10.1-0.5,23-8c12.9-7.5,14.3-15.1,14.3-15.1c0.5,0.7,1,1.3,1.5,1.9c1.7-1.4,3.3-2.7,4.8-4.1
			c0.4-0.4,0.7-1.1,0.6-1.6C205.6,81.3,205.4,79.6,205,78.1z M178.7,66.2c-1.4,2.7-3.3,5-5.9,6.7c-4.3,2.7-8.4,1.1-9.8-3.7
			c-1-3.5-0.7-7-0.2-10.5c0.3-2,0.7-3.9,1.1-6c2,1.1,2,1.1,1.6,3c-0.7,3.2-1.2,6.4-0.9,9.6c0.2,2.3,0.8,4.6,3.3,5.5
			c2.4,0.9,4.3-0.3,6.1-1.8c1.7-1.5,2.9-3.5,3.7-5.7C179.5,64.2,179.6,64.5,178.7,66.2z"/>
		<path class="st1" d="M145.4,101.2c-4.5-2.8-8.4-6.4-11.6-10.6c-5.1-6.9-8.2-14.6-9.7-23c-0.1-0.3-0.3-0.7-0.5-1c0,0.5,0,1,0,1.4
			c0.1,0.6,0.2,1.2,0.3,1.8c0.4,4.4,1.3,8.8,2.9,13c3,7.8,7.9,14,15.5,17.8c1.3,0.6,2.6,1.1,4.1,1.7c-0.1-0.3-0.1-0.4-0.2-0.5
			C145.9,101.6,145.7,101.4,145.4,101.2z"/>
		<path class="st1" d="M176.4,38.8c-11.3-9.9-23.9-16.4-39.4-16C150.9,26.3,164.4,30.6,176.4,38.8C176.4,38.8,176.4,38.8,176.4,38.8
			z"/>
	</g>
</g>
</svg>
