<?xml version="1.0" encoding="utf-8"?>
<!-- Generator: Adobe Illustrator 15.1.0, SVG Export Plug-In . SVG Version: 6.00 Build 0)  -->
<!DOCTYPE svg PUBLIC "-//W3C//DTD SVG 1.1//EN" "http://www.w3.org/Graphics/SVG/1.1/DTD/svg11.dtd">
<svg version="1.1"
	 id="svg3355" xmlns:dc="http://purl.org/dc/elements/1.1/" xmlns:cc="http://creativecommons.org/ns#" xmlns:rdf="http://www.w3.org/1999/02/22-rdf-syntax-ns#" xmlns:svg="http://www.w3.org/2000/svg"
	 xmlns="http://www.w3.org/2000/svg" xmlns:xlink="http://www.w3.org/1999/xlink" x="0px" y="0px" width="111.786px"
	 height="127.387px" viewBox="278.158 0 111.786 127.387" enable-background="new 278.158 0 111.786 127.387" xml:space="preserve">
<g id="g3363" transform="matrix(1.3333333,0,0,-1.3333333,-180.53426,935.79824)">
	<g id="XMLID_1_">
		<g>
			<path fill="#FFFFFF" d="M420.066,694.046v-42.893l-13.65-13.649h-21.45l-11.7-11.693v11.693h-17.542v56.542H420.066z
				 M406.416,655.053v23.4h-7.8v-23.4H406.416z M384.966,655.053v23.4h-7.8v-23.4H384.966z"/>
			<path fill="#6441A5" d="M427.858,701.846v-54.592l-31.192-31.193h-15.6l-9.75-9.75h-9.75v9.75h-17.55v70.185l3.9,15.6H427.858z
				 M420.066,651.153v42.893h-64.343v-56.542h17.542v-11.693l11.7,11.693h21.45L420.066,651.153z"/>
			<rect x="397.315" y="651.153" fill="#6441A5" width="10.4" height="31.2"/>
			<rect x="375.866" y="651.153" fill="#6441A5" width="10.4" height="31.2"/>
		</g>
		<g>
		</g>
	</g>
</g>
</svg>
