<svg xmlns="http://www.w3.org/2000/svg" width="111.786" height="127.387" viewBox="278.158 0 111.786 127.387"><path fill="#FFF" d="M379.554 10.404v57.19l-18.2 18.199h-28.6l-15.6 15.59v-15.59h-23.39v-75.39h85.79zm-18.2 51.99v-31.2h-10.4v31.2h10.4zm-28.6 0v-31.2h-10.4v31.2h10.4z"/><path fill="#6441A5" d="M389.943.004v72.789l-41.59 41.59h-20.8l-13 13h-13v-13h-23.4v-93.58l5.2-20.8h106.59zm-10.39 67.59v-57.19h-85.79v75.389h23.39v15.59l15.6-15.59h28.6l18.2-18.199z"/><path fill="#6441A5" d="M349.22 67.594h13.866v-41.6h-13.867zM320.62 67.594h13.867v-41.6H320.62z"/></svg>